<svg width="164" height="136" viewBox="0 0 164 136" xmlns="http://www.w3.org/2000/svg" xmlns:xlink="http://www.w3.org/1999/xlink"><title>i-meetup</title><defs><path id="a" d="M.043.337h22.768v25.366H.043z"/><path id="c" d="M.083.487h12.038v12.038H.083z"/></defs><g fill="none" fill-rule="evenodd"><path d="M75.272 94.292c0 20.786-16.851 37.636-37.636 37.636C16.85 131.928 0 115.078 0 94.292c0-20.785 16.85-37.636 37.636-37.636 20.785 0 37.636 16.851 37.636 37.636" fill="#5A57FF"/><path d="M25.834 97.558a7.486 7.486 0 1 1-14.971 0 7.486 7.486 0 0 1 14.971 0z" stroke="#5A57FF" stroke-width=".169"/><path d="M25.834 97.558a7.486 7.486 0 1 1-14.971 0 7.486 7.486 0 0 1 14.971 0" fill="#FFF"/><path d="M24.204 97.558a4.067 4.067 0 1 1-8.135 0 4.067 4.067 0 0 1 8.135 0" fill="#000"/><path d="M64.409 97.558a7.486 7.486 0 1 0-14.972 0 7.486 7.486 0 0 0 14.972 0z" stroke="#5A57FF" stroke-width=".169"/><path d="M64.409 97.558a7.486 7.486 0 1 0-14.972 0 7.486 7.486 0 0 0 14.972 0" fill="#FFF"/><path d="M62.779 97.558a4.067 4.067 0 1 0-8.135 0 4.067 4.067 0 0 0 8.135 0" fill="#000"/><path d="M34.617 103.404c1.733-1.11 3.994-1.164 5.785-.153M14.806 84.896c1.733-1.11 3.994-1.164 5.785-.153m33.523.153c1.733-1.11 3.995-1.164 5.785-.153" stroke="#000" stroke-width="3.394" stroke-linecap="round" stroke-linejoin="round"/><path d="M24.903 116.438c.32.413.718.778 1.19 1.065 3.277 1.98 7.48 2.969 11.684 2.969 4.203 0 8.407-.99 11.683-2.97.363-.218.68-.484.954-.781-7.903-2.816-17.142-2.91-25.511-.283" fill="#FFF"/><path d="M50.414 116.72a4.381 4.381 0 0 0-5.487-6.72c-3.808 2.302-10.491 2.302-14.3 0a4.382 4.382 0 0 0-6.016 1.486 4.379 4.379 0 0 0 .292 4.952c8.369-2.627 17.609-2.533 25.51.283" fill="#000"/><path d="M121.217 59.911H86.478a3.395 3.395 0 0 1-3.395-3.394V27.602a3.394 3.394 0 0 1 3.395-3.394h34.74a3.394 3.394 0 0 1 3.394 3.394v28.915a3.395 3.395 0 0 1-3.395 3.394" fill="#5A57FF"/><path d="M83.084 46.182v22.33c0 1.816 2.192 2.724 3.477 1.44l18.038-18.04-21.516-5.73zm49.082 45.92l15.79-15.79c1.283-1.283.375-3.477-1.44-3.477h-25.511l11.16 19.267z" fill="#5A57FF"/><path d="M141.043 92.874c0 11.067-8.972 20.04-20.039 20.04-11.067 0-20.038-8.973-20.038-20.04 0-11.067 8.972-20.039 20.038-20.039 11.067 0 20.04 8.972 20.04 20.04" fill="#5A57FF"/><g transform="translate(141 24.513)"><mask id="b" fill="#fff"><use xlink:href="#a"/></mask><path d="M22.811 17.868V8.173a2.985 2.985 0 0 0-1.493-2.587L12.921.738a2.985 2.985 0 0 0-2.987 0L1.538 5.586A2.985 2.985 0 0 0 .043 8.173v9.695c0 1.067.57 2.054 1.495 2.587l8.396 4.848a2.985 2.985 0 0 0 2.987 0l8.397-4.848a2.987 2.987 0 0 0 1.493-2.587" fill="#5A57FF" mask="url(#b)"/></g><path d="M97.177 117.371a5.638 5.638 0 1 1-11.276 0 5.638 5.638 0 0 1 11.276 0" fill="#5A57FF"/><path d="M144.762 126.61l-2.553 4.422c-1.149 1.991.287 4.48 2.587 4.48h5.106c2.3 0 3.737-2.489 2.587-4.48l-2.553-4.422c-1.15-1.99-4.024-1.99-5.174 0" fill="#000"/><path d="M58.303 36.035l-.005.01c-1.149 1.99.288 4.48 2.587 4.48h.01c2.3 0 3.736-2.49 2.587-4.48l-.005-.01c-1.15-1.99-4.025-1.99-5.174 0" fill="#5A57FF"/><g transform="translate(83 -.487)"><mask id="d" fill="#fff"><use xlink:href="#c"/></mask><path d="M11.247 4.393L8.215 1.361a2.989 2.989 0 0 0-4.225 0L.959 4.393a2.987 2.987 0 0 0 0 4.225l3.03 3.031a2.987 2.987 0 0 0 4.226 0l3.032-3.03a2.989 2.989 0 0 0 0-4.226" fill="#000" mask="url(#d)"/></g><path d="M93.752 48.435a.615.615 0 0 1-.158-.42V44.99c0-.176.053-.32.159-.432a.497.497 0 0 1 .371-.168h2.803c.155 0 .286.057.392.168a.6.6 0 0 1 .16.432v3.024a.601.601 0 0 1-.16.432.519.519 0 0 1-.392.168h-2.803a.48.48 0 0 1-.371-.18m0-8.4a.616.616 0 0 1-.16-.42V36.59a.6.6 0 0 1 .16-.431.494.494 0 0 1 .371-.168h2.803c.155 0 .286.056.392.168.108.112.16.255.16.43v3.026c0 .175-.052.32-.16.43a.515.515 0 0 1-.392.169h-2.803a.479.479 0 0 1-.371-.18m14.975 6.826c.892 0 1.551-.24 1.975-.72.424-.48.651-1.248.68-2.303.028-.465.041-1.066.041-1.8 0-.737-.013-1.328-.042-1.777-.028-1.023-.272-1.78-.732-2.267-.46-.489-1.136-.733-2.028-.733h-2.018v9.6h2.124zm-5.957 3.42a.615.615 0 0 1-.159-.42V34.284c0-.176.05-.323.148-.444.1-.12.227-.18.383-.18h5.585c2.096 0 3.724.563 4.885 1.691 1.16 1.129 1.768 2.748 1.826 4.86.014.464.021 1.08.021 1.847 0 .77-.007 1.377-.02 1.825-.143 4.383-2.345 6.575-6.606 6.575h-5.69a.483.483 0 0 1-.373-.18z" fill="#FFF"/><path d="M113.5 93.446c0-6.872 2.2-10.309 6.6-10.309.163 0 .295.052.398.156a.534.534 0 0 1 .154.396v1.987a.509.509 0 0 1-.154.375.591.591 0 0 1-.376.177c-1.147.073-1.95.703-2.405 1.887-.456 1.185-.685 2.962-.685 5.331 0 2.37.229 4.15.685 5.342.456 1.192 1.258 1.825 2.405 1.898a.601.601 0 0 1 .376.177.514.514 0 0 1 .154.376v1.986a.54.54 0 0 1-.154.398.54.54 0 0 1-.397.154c-4.401 0-6.601-3.443-6.601-10.33m10.972 5.297a.53.53 0 0 1-.165-.386v-2.782c0-.16.055-.294.165-.396a.545.545 0 0 1 .387-.156h2.914c.161 0 .298.052.408.156.11.102.165.235.165.396v2.782a.52.52 0 0 1-.165.397.576.576 0 0 1-.408.155h-2.914a.53.53 0 0 1-.387-.166m0-7.726a.53.53 0 0 1-.165-.386V87.85a.547.547 0 0 1 .552-.551h2.914c.161 0 .298.051.408.154a.52.52 0 0 1 .165.397v2.782a.518.518 0 0 1-.165.397.571.571 0 0 1-.408.154h-2.914a.526.526 0 0 1-.387-.165" fill="#000"/><path d="M-16-35h200v200H-16z"/></g></svg>