<svg width="148" height="133" viewBox="0 0 148 133" xmlns="http://www.w3.org/2000/svg"><title>i-workshop</title><g fill="none" fill-rule="evenodd"><path d="M103.915 34.196l-49.91 13.336c-2.435.65-2.79 3.956-.55 5.109l35.823 18.438a2.755 2.755 0 0 0 3.778-1.332l14.087-31.775c.938-2.115-.993-4.374-3.228-3.776m-58.54-3.365l-3.847-5.294a3.03 3.03 0 0 0-3.386-1.101l-6.224 2.023a3.03 3.03 0 0 0-2.094 2.88v6.544a3.03 3.03 0 0 0 2.094 2.881l6.224 2.022a3.029 3.029 0 0 0 3.386-1.1l3.847-5.294a3.03 3.03 0 0 0 0-3.56M40.411.378l-5.434 3.82c-1.3.913-1.125 2.893.318 3.562l6.023 2.798c1.444.67 3.07-.473 2.928-2.057l-.59-6.616c-.14-1.584-1.944-2.42-3.245-1.507" fill="#5A57FF"/><path d="M90.203 104.814L15.056 66.136a2.754 2.754 0 0 1-1.189-3.71l6.094-11.84a2.755 2.755 0 0 1 3.71-1.186l75.146 38.678a2.754 2.754 0 0 1 1.19 3.709l-6.095 11.84a2.755 2.755 0 0 1-3.709 1.187" fill="#2B2B2F"/><path d="M105.203 66.804l-4.735-4.734c-1.793-1.794-4.713-2.007-6.62-.332a4.764 4.764 0 0 0-.231 6.953l-2.853-2.854c-1.793-1.794-4.713-2.006-6.62-.332a4.763 4.763 0 0 0-.23 6.953l3.87 3.87a4.765 4.765 0 0 0-6.954.232c-1.673 1.906-1.461 4.826.333 6.62l17.302 17.302c.94.941-.07 2.5-1.313 2.024l-5.244-2.007a5.234 5.234 0 0 0-6.902 3.284c-.85 2.655.645 5.503 3.24 6.523l10.571 4.158c5.182 2.037 14.165 5.173 18.352 1.266v.001a4.444 4.444 0 0 0 1.235 4.868c1.78 1.573 4.518 1.367 6.197-.313l19.35-19.349c1.721-1.72 1.895-4.547.227-6.319a4.444 4.444 0 0 0-6.379-.097l-.316.315c1.441-4.009.558-8.666-2.655-11.878l-7.999-8a26.002 26.002 0 0 1-2.77-3.267l-9.653-13.5c-1.475-2.065-4.322-2.753-6.476-1.413a4.763 4.763 0 0 0-1.369 6.82l5.87 10.434-7.229-7.228" fill="#FFF"/><path d="M105.203 66.804l-4.735-4.734c-1.793-1.794-4.713-2.007-6.62-.332a4.764 4.764 0 0 0-.231 6.953l-2.853-2.854c-1.793-1.794-4.713-2.006-6.62-.332a4.763 4.763 0 0 0-.23 6.953l3.87 3.87a4.765 4.765 0 0 0-6.954.232c-1.673 1.906-1.461 4.826.333 6.62l17.302 17.302c.94.941-.07 2.5-1.313 2.024l-5.244-2.007a5.234 5.234 0 0 0-6.902 3.284c-.85 2.655.645 5.503 3.24 6.523l10.571 4.158c5.182 2.037 14.165 5.173 18.352 1.266v.001a4.444 4.444 0 0 0 1.235 4.868c1.78 1.573 4.518 1.367 6.197-.313l19.35-19.349c1.721-1.72 1.895-4.547.227-6.319a4.444 4.444 0 0 0-6.379-.097l-.316.315c1.441-4.009.558-8.666-2.655-11.878l-7.999-8a26.002 26.002 0 0 1-2.77-3.267l-9.653-13.5c-1.475-2.065-4.322-2.753-6.476-1.413a4.763 4.763 0 0 0-1.369 6.82l5.87 10.434-7.229-7.228m11.528 26.999l1.772 1.77m3.438-6.964l1.526 1.984m-11.929 8.42l1.983 1.525" stroke="#55F" stroke-width="3.442" stroke-linecap="round" stroke-linejoin="round"/><path d="M87.784 76.328L98 86.545" fill="#FFF"/><path d="M87.784 76.328L98 86.545" stroke="#55F" stroke-width="3.442" stroke-linecap="round" stroke-linejoin="round"/><path d="M93.617 68.69l11.071 11.072" fill="#FFF"/><path d="M93.617 68.69l11.071 11.072m12.482 35.968v.002l-.003-.001zm7.037-7.036l-7.038 7.037m12.136-12.136l3.582-3.582" stroke="#55F" stroke-width="3.442" stroke-linecap="round" stroke-linejoin="round"/><path d="M11.75 79.202v-6.696c0-2.537 1.914-4.752 4.445-4.916a4.763 4.763 0 0 1 5.08 4.753v-4.035c0-2.537 1.915-4.752 4.447-4.916a4.765 4.765 0 0 1 5.08 4.753v5.474a4.764 4.764 0 0 1 5.08-4.753c2.531.164 4.446 2.379 4.446 4.916V98.25c0 1.33 1.817 1.718 2.358.503l2.29-5.127a5.235 5.235 0 0 1 7.203-2.56c2.478 1.278 3.434 4.349 2.322 6.905l-4.536 10.416c-2.223 5.103-6.358 13.672-12.08 13.87a4.444 4.444 0 0 1 2.568 4.317c-.145 2.37-2.228 4.16-4.603 4.16H8.485c-2.432 0-4.554-1.874-4.628-4.306a4.446 4.446 0 0 1 4.443-4.581h.445a11.353 11.353 0 0 1-6.52-10.275l-.504-32.18c-.023-2.536 1.872-4.768 4.401-4.955a4.764 4.764 0 0 1 5.123 4.707l.504 10.277v-10.22" fill="#FFF"/><path d="M11.75 79.202v-6.696c0-2.537 1.914-4.752 4.445-4.916a4.763 4.763 0 0 1 5.08 4.753v-4.035c0-2.537 1.915-4.752 4.447-4.916a4.765 4.765 0 0 1 5.08 4.753v5.474a4.764 4.764 0 0 1 5.08-4.753c2.531.164 4.446 2.379 4.446 4.916V98.25c0 1.33 1.817 1.718 2.358.503l2.29-5.127a5.235 5.235 0 0 1 7.203-2.56c2.478 1.278 3.434 4.349 2.322 6.905l-4.536 10.416c-2.223 5.103-6.358 13.672-12.08 13.87a4.444 4.444 0 0 1 2.568 4.317c-.145 2.37-2.228 4.16-4.603 4.16H8.485c-2.432 0-4.554-1.874-4.628-4.306a4.446 4.446 0 0 1 4.443-4.581h.445a11.353 11.353 0 0 1-6.52-10.275l-.504-32.18c-.023-2.536 1.872-4.768 4.401-4.955a4.764 4.764 0 0 1 5.123 4.707l.504 10.277v-10.22m10.941 27.243v2.503m-7.358-2.493l.324 2.482m14.39-2.482l-.324 2.482" stroke="#55F" stroke-width="3.442" stroke-linecap="round" stroke-linejoin="round"/><path d="M30.802 73.619v14.448" fill="#FFF"/><path d="M30.802 73.619v14.448" stroke="#55F" stroke-width="3.442" stroke-linecap="round" stroke-linejoin="round"/><path d="M21.276 72.342V88" fill="#FFF"/><path d="M21.276 72.342V88m16.608 34.26h.002v-.002zm-9.952 0h9.952m-17.163 0h-5.064" stroke="#55F" stroke-width="3.442" stroke-linecap="round" stroke-linejoin="round"/><path d="M73.7 7.682l-17.947 4.796a3.443 3.443 0 0 0-2.438 4.214l4.797 17.948a3.443 3.443 0 0 0 4.213 2.437l17.948-4.796a3.443 3.443 0 0 0 2.438-4.214L77.914 10.12A3.443 3.443 0 0 0 73.7 7.682" fill="#2B2B2F"/><path d="M-27-36h200v200H-27z"/></g></svg>