<svg width="44" height="59" viewBox="0 0 44 59" xmlns="http://www.w3.org/2000/svg"><title>shipear</title><path d="M18.563 1.214v32.268c0 .67-.544 1.214-1.215 1.214C7.82 34.696.085 27.016 0 17.506v-.315C.085 7.682 7.82 0 17.348 0c.671 0 1.215.542 1.215 1.213zM2.972 41.29h13.832c.972 0 1.76.786 1.76 1.757V56.88c0 .956-.76 1.732-1.71 1.759H2.922a1.758 1.758 0 0 1-1.708-1.759V43.047c0-.97.787-1.758 1.758-1.758zm40.746-.169v.337c-.09 9.484-7.791 17.148-17.289 17.18h-.075a1.215 1.215 0 0 1-1.2-1.215V25.156c0-.671.545-1.215 1.216-1.215 9.525 0 17.258 7.677 17.348 17.18zM33.396 18.737a9.108 9.108 0 0 0 9.107-9.108 9.107 9.107 0 1 0-18.215 0 9.108 9.108 0 0 0 9.108 9.108" fill="#5A57FF" fill-rule="evenodd"/></svg>